<?xml version="1.0" encoding="utf-8"?>
<!-- Generator: Adobe Illustrator 17.0.0, SVG Export Plug-In . SVG Version: 6.00 Build 0)  -->
<!DOCTYPE svg PUBLIC "-//W3C//DTD SVG 1.1//EN" "http://www.w3.org/Graphics/SVG/1.1/DTD/svg11.dtd">
<svg version="1.1" xmlns="http://www.w3.org/2000/svg" xmlns:xlink="http://www.w3.org/1999/xlink" x="0px" y="0px" width="258.5px"
	 height="131px" viewBox="0 0 258.5 131" enable-background="new 0 0 258.5 131" xml:space="preserve">
<g id="Layer_1">
</g>
<g id="Layer_2">
	<g>
		<ellipse fill="#E9621B" cx="129.25" cy="65.5" rx="129.25" ry="65.5"/>
		<rect x="48" y="24.5" fill="none" width="168" height="45.5"/>
		
			<text transform="matrix(1 0 0 1 48 64.1475)" fill="#ECD013" stroke="#5E3400" stroke-width="4" stroke-miterlimit="10" font-family="'MarkerFelt-Wide'" font-size="48">REESE’S</text>
	</g>
	<rect x="78.25" y="80.5" fill="none" width="102" height="13"/>
	<text transform="matrix(1 0 0 1 78.25 88.75)" fill="#5E3400" font-family="'Krungthep'" font-size="11">MILK CHOCOLATE</text>
	<path fill="#331300" d="M66,111.5"/>
	<polygon fill="#331300" points="186.397,99.738 184.103,104 180.103,97.5 176.103,102 171.103,97.5 169.603,102 165.103,97.5 
		162.103,102 158.103,97.5 154.603,102 152.103,97.5 149.103,101.5 147.103,97.5 144.103,101 142.103,97.5 138.603,100 
		136.103,97.5 132.103,102 129.603,97.5 126.103,101.5 124.103,97.5 121.103,101 117.603,97.5 114.103,100 111.103,97.5 
		107.103,101 104.103,97.5 100.603,102 97.603,97.5 93.603,100.5 91.103,97.5 89.103,102 86.603,97.5 84.103,102 81.103,97.5 
		77.103,104 75.103,97.5 72.103,119 186.397,119 	"/>
	<text transform="matrix(1 0 0 1 88 112.5)" fill="#B29472" font-family="'Krungthep'" font-size="8">PEANUT BUTTER CUPS</text>
</g>
</svg>
